<svg xmlns="http://www.w3.org/2000/svg" width="56.026" height="57" viewBox="0 0 56.026 57">
  <g id="Group_8" data-name="Group 8" transform="translate(-5.769 -5)">
    <g id="Group_3" data-name="Group 3" transform="translate(5.769 5)">
      <path id="Path_4" data-name="Path 4" d="M64.065,44.832h-15l.732-7.128c.711-2.927-.557-6.643-2.112-8.654-.657-.85-1.1-1.046-1.21-1.048a2.5,2.5,0,0,0-1.7.956v6.455L38.131,47.919,34.57,49.432l0,16.659H36.16l2.976,1.683H58.778l.011-.053.175-.006a4.113,4.113,0,0,0,3.179-4.4c-.037-.79-.824-1.122-1.276-1.25v-.3a4.041,4.041,0,0,0,2.5-4.177c-.034-.726-.7-1.065-1.158-1.213v-.217a4.054,4.054,0,0,0,2.724-4.265c-.046-.99-1.272-1.262-1.536-1.311h-.194v-.312a4.035,4.035,0,0,0,2.4-4.13C65.556,45.152,64.329,44.881,64.065,44.832Z" transform="translate(-16.329 -13.434)" fill="none"/>
      <path id="Path_5" data-name="Path 5" d="M56.786,44.959a3.471,3.471,0,0,0-3.091-2.886l-13.253-.008.509-5.022c.951-4.044-1.139-8.7-2.861-10.58a2.852,2.852,0,0,0-2.428-1.21,4.117,4.117,0,0,0-3.113,2.067l-.085.179v6.463L26.316,45.535l-2.44,1.037A3.01,3.01,0,0,0,21,44.4H8.784a3.019,3.019,0,0,0-3.015,3.015V66.693l0,.068a2.9,2.9,0,0,0,2.886,2.659H21.122A2.9,2.9,0,0,0,24,66.829h1.143l2.976,1.683h21.1l.049-.006a5.573,5.573,0,0,0,3.961-6.264,3.517,3.517,0,0,0-.314-1.065,5.307,5.307,0,0,0,1.87-4.542,2.969,2.969,0,0,0-.406-1.232,3.631,3.631,0,0,0,.338-.275,4.917,4.917,0,0,0,1.326-3.965,2.7,2.7,0,0,0-.872-1.918C56.441,48.441,56.984,47.007,56.786,44.959Zm-4.141,4.3v.312h.194c.264.049,1.491.321,1.536,1.311a4.054,4.054,0,0,1-2.724,4.265v.217c.459.149,1.125.488,1.158,1.213a4.039,4.039,0,0,1-2.5,4.177v.3c.452.127,1.239.459,1.276,1.25A4.113,4.113,0,0,1,48.4,66.7l-.175.006-.011.053H28.576L25.6,65.078H24.008l0-16.659,3.561-1.514L34.215,34.4V27.943a2.5,2.5,0,0,1,1.7-.956c.105,0,.553.2,1.21,1.048,1.554,2.011,2.822,5.728,2.112,8.655L38.5,43.818h15c.264.049,1.491.321,1.536,1.311A4.032,4.032,0,0,1,52.645,49.258Z" transform="translate(-5.769 -12.419)"/>
      <path id="Path_6" data-name="Path 6" d="M86.591,18.225l-4.559-.662-2.039-4.132-2.039,4.132-4.559.662,3.3,3.215-.779,4.541,4.078-2.144,4.078,2.144-.779-4.541Z" transform="translate(-30.565 -8.091)"/>
      <path id="Path_7" data-name="Path 7" d="M73.136,37.093l-1.219-2.469L70.7,37.093l-2.724.4,1.972,1.921-.465,2.713,2.436-1.281,2.436,1.281-.466-2.713,1.972-1.921Z" transform="translate(-28.578 -15.862)"/>
      <path id="Path_8" data-name="Path 8" d="M63.256,12.5l2.436-1.281L68.129,12.5l-.465-2.713,1.971-1.922-2.724-.4L65.693,5,64.475,7.469l-2.724.4,1.971,1.922Z" transform="translate(-26.296 -5)"/>
    </g>
  </g>
</svg>
