<svg id="instagram" xmlns="http://www.w3.org/2000/svg" width="43.833" height="43.834" viewBox="0 0 43.833 43.834">
  <path id="Path_6" data-name="Path 6" d="M17.093,5.838A11.247,11.247,0,1,0,28.34,17.085,11.246,11.246,0,0,0,17.093,5.838Zm0,18.547a7.3,7.3,0,1,1,7.3-7.3A7.3,7.3,0,0,1,17.093,24.385Z" transform="translate(4.831 4.823)" fill="#eb4260"/>
  <path id="Path_7" data-name="Path 7" d="M30.954.138C26.921-.05,16.932-.041,12.9.138,9.349.3,6.221,1.161,3.7,3.683-.517,7.9.022,13.579.022,21.909c0,8.526-.475,14.074,3.676,18.225,4.232,4.23,9.994,3.676,18.225,3.676,8.445,0,11.36.005,14.346-1.151,4.06-1.576,7.125-5.205,7.424-11.723.19-4.034.179-14.021,0-18.057C43.333,5.185,39.2.518,30.954.138Zm6.383,37.207c-2.763,2.763-6.6,2.517-15.466,2.517-9.132,0-12.794.135-15.466-2.544-3.077-3.063-2.52-7.981-2.52-15.438C3.885,11.789,2.849,4.522,12.977,4c2.327-.082,3.012-.11,8.869-.11l.082.055c9.733,0,17.369-1.019,17.827,9.106.1,2.31.128,3,.128,8.852C39.881,30.933,40.053,34.617,37.337,37.345Z" transform="translate(0 -0.001)" fill="#eb4260"/>
  <ellipse id="Ellipse_1" data-name="Ellipse 1" cx="2.628" cy="2.628" rx="2.628" ry="2.628" transform="translate(30.988 7.589)" fill="#eb4260"/>
</svg>
