<svg xmlns="http://www.w3.org/2000/svg" width="97.427" height="99.121" viewBox="0 0 97.427 99.121">
  <g id="Group_3" data-name="Group 3" transform="translate(-5.769 -5)">
    <g id="Group_3-2" data-name="Group 3" transform="translate(5.769 5)">
      <path id="Path_4" data-name="Path 4" d="M85.862,57.269H59.772l1.272-12.4c1.237-5.089-.969-11.552-3.672-15.05C56.23,28.346,55.452,28,55.269,28a4.345,4.345,0,0,0-2.952,1.663V40.889L40.764,62.637,34.571,65.27l0,28.969h2.768l5.175,2.927H76.669l.019-.091.305-.01a7.153,7.153,0,0,0,5.529-7.657c-.064-1.374-1.433-1.952-2.218-2.173v-.518a7.026,7.026,0,0,0,4.351-7.263c-.058-1.262-1.218-1.851-2.014-2.11v-.378a7.049,7.049,0,0,0,4.737-7.416c-.08-1.721-2.213-2.194-2.672-2.28h-.338v-.542a7.017,7.017,0,0,0,4.168-7.182C88.455,57.827,86.321,57.354,85.862,57.269Z" transform="translate(-2.85 -2.669)" fill="none"/>
      <path id="Path_5" data-name="Path 5" d="M94.486,59.536c-.333-3.441-3.662-4.788-5.376-5.019L66.063,54.5l.885-8.734c1.653-7.032-1.98-15.124-4.976-18.4-1.461-1.6-2.88-2.308-4.221-2.1a7.16,7.16,0,0,0-5.414,3.594l-.148.311V40.411L41.5,60.537l-4.242,1.8a5.235,5.235,0,0,0-5.009-3.779H11.013A5.25,5.25,0,0,0,5.769,63.8V97.329l0,.118a5.047,5.047,0,0,0,5.019,4.623H32.468a5.041,5.041,0,0,0,5-4.5h1.987l5.175,2.927H81.319l.085-.01c1.356-.153,8.116-3.426,6.889-10.893a6.116,6.116,0,0,0-.545-1.851A9.229,9.229,0,0,0,91,79.841a5.163,5.163,0,0,0-.706-2.143,6.314,6.314,0,0,0,.588-.478c1.643-1.532,2.42-3.851,2.305-6.9a4.692,4.692,0,0,0-1.517-3.335C93.886,65.591,94.831,63.1,94.486,59.536Zm-7.2,7.476v.542h.338c.459.086,2.593.558,2.672,2.28a7.049,7.049,0,0,1-4.737,7.416v.378c.8.259,1.956.849,2.014,2.11A7.024,7.024,0,0,1,83.221,87v.518c.785.221,2.154.8,2.218,2.173a7.153,7.153,0,0,1-5.529,7.657l-.305.01-.019.091H45.43l-5.175-2.927H37.487l0-28.969,6.193-2.632L55.236,41.173V29.946a4.345,4.345,0,0,1,2.952-1.663c.183,0,.961.345,2.1,1.823,2.7,3.5,4.908,9.961,3.672,15.05l-1.272,12.4H88.78c.459.086,2.593.558,2.672,2.28A7.011,7.011,0,0,1,87.285,67.011Z" transform="translate(-5.769 -2.949)" fill="#fff"/>
      <path id="Path_6" data-name="Path 6" d="M96.343,21.768l-7.929-1.152-3.546-7.185-3.545,7.185-7.929,1.152,5.737,5.592-1.355,7.9,7.092-3.728,7.092,3.728L90.6,27.36Z" transform="translate(1.085 -4.146)" fill="#fff"/>
      <path id="Path_7" data-name="Path 7" d="M76.95,38.917l-2.119-4.293-2.119,4.293-4.737.688,3.428,3.34-.809,4.718,4.237-2.227,4.237,2.227-.809-4.718,3.429-3.34Z" transform="translate(0.535 -1.998)" fill="#fff"/>
      <path id="Path_8" data-name="Path 8" d="M64.369,18.04l4.237-2.227,4.237,2.227-.808-4.718L75.462,9.98l-4.737-.687L68.606,5,66.488,9.293l-4.737.687,3.427,3.341Z" transform="translate(-0.095 -5)" fill="#fff"/>
    </g>
  </g>
</svg>
